:FULLY-SPECIFIED
:FORCE-ALL-JOINTS-BE-3DOF
:DEGREES
374
root 6.19332 16.5077 -15.8861 9.32644 -17.0757 -6.11333
lfemur -44.9729 22.5153 -12.8353
ltibia 67.582 0 0
lfoot -10.4815 -1.39388 0
ltoes 13.781 0 0
rfemur -24.4604 -3.57153 31.2316
rtibia 41.6957 0 0
rfoot -21.3918 0.617724 0
rtoes 17.6776 0 0
lowerback 5.21212 1.5845 3.38916
upperback 2.62967 2.25558 1.02214
thorax -0.117298 1.14611 -0.962367
lowerneck -7.84789 -1.28508 2.93148
upperneck -0.654634 -2.02271 2.17309
head 1.10083 -0.975464 0.11699
lclavicle -2.7056e-14 -4.94122e-15 0
lhumerus -40.352 -22.995 94.9542
lradius 56.5249 0 0
lwrist 19.3426 0 0
lhand -21.2774 2.91616 0
lfingers 7.12502 0 0
lthumb 5.10647 32.8339 0
rclavicle -2.7056e-14 -4.94122e-15 0
rhumerus -37.5114 12.7813 -93.5153
rradius 61.0468 0 0
rwrist 9.17864 0 0
rhand -9.52715 -19.544 0
rfingers 7.12502 0 0
rthumb 16.4388 -768.865 0
375
root 6.1459 16.5147 -15.749 9.36979 -17.8359 -6.25608
lfemur -45.2266 22.035 -13.0561
ltibia 64.5634 0 0
lfoot -10.0032 -0.543646 0
ltoes 13.6998 0 0
rfemur -23.5547 -2.94996 31.2645
rtibia 41.2463 0 0
rfoot -21.637 0.617926 0
rtoes 17.7623 0 0
lowerback 5.16833 1.7561 3.49473
upperback 2.5986 2.48673 0.958601
thorax -0.106256 1.26263 -1.09599
lowerneck -7.7519 -1.20547 3.0826
upperneck -0.551944 -1.92722 2.10808
head 1.11555 -0.927496 0.074924
lclavicle -2.0134e-14 -4.82763e-15 0
lhumerus -40.2333 -22.9284 94.6271
lradius 56.1801 0 0
lwrist 18.9421 0 0
lhand -21.4612 2.73563 0
lfingers 7.12502 0 0
lthumb 4.92905 32.6574 0
rclavicle -2.0134e-14 -4.82763e-15 0
rhumerus -37.6474 13.0809 -93.6289
rradius 60.4238 0 0
rwrist 9.39599 0 0
rhand -9.85444 -19.335 0
rfingers 7.12502 0 0
rthumb 16.1236 -768.681 0
376
root 6.09847 16.5218 -15.6119 9.41314 -18.596 -6.39884
lfemur -45.4803 21.5547 -13.277
ltibia 61.5449 0 0
lfoot -9.52488 0.306586 0
ltoes 13.6186 0 0
rfemur -22.6489 -2.3284 31.2975
rtibia 40.7968 0 0
rfoot -21.8823 0.618128 0
rtoes 17.847 0 0
lowerback 5.12453 1.9277 3.6003
upperback 2.56754 2.71787 0.895061
thorax -0.0952143 1.37916 -1.2296
lowerneck -7.65592 -1.12586 3.23373
upperneck -0.449255 -1.83172 2.04307
head 1.13028 -0.879529 0.0328579
lclavicle -1.32121e-14 -4.71403e-15 0
lhumerus -40.1147 -22.8617 94.3
lradius 55.8354 0 0
lwrist 18.5416 0 0
lhand -21.6449 2.55511 0
lfingers 7.12502 0 0
lthumb 4.75163 32.4809 0
rclavicle -1.32121e-14 -4.71403e-15 0
rhumerus -37.7834 13.3806 -93.7424
rradius 59.8008 0 0
rwrist 9.61335 0 0
rhand -10.1817 -19.126 0
rfingers 7.12502 0 0
rthumb 15.8084 -768.497 0
377
root 6.05105 16.5288 -15.4748 9.45649 -19.3562 -6.54159
lfemur -45.734 21.0744 -13.4978
ltibia 58.5263 0 0
lfoot -9.04655 1.15682 0
ltoes 13.5374 0 0
rfemur -21.7432 -1.70684 31.3304
rtibia 40.3474 0 0
rfoot -22.1275 0.61833 0
rtoes 17.9317 0 0
lowerback 5.08074 2.0993 3.70587
upperback 2.53647 2.94902 0.831521
thorax -0.0841724 1.49569 -1.36322
lowerneck -7.55993 -1.04625 3.38485
upperneck -0.346565 -1.73623 1.97806
head 1.145 -0.831561 -0.00920807
lclavicle -6.2901e-15 -4.60044e-15 0
lhumerus -39.996 -22.7951 93.9729
lradius 55.4906 0 0
lwrist 18.1411 0 0
lhand -21.8287 2.37458 0
lfingers 7.12502 0 0
lthumb 4.57421 32.3044 0
rclavicle -6.2901e-15 -4.60044e-15 0
rhumerus -37.9194 13.6802 -93.856
rradius 59.1778 0 0
rwrist 9.8307 0 0
rhand -10.509 -18.917 0
rfingers 7.12502 0 0
rthumb 15.4932 -768.313 0
378
root 6.00363 16.5359 -15.3378 9.49984 -20.1163 -6.68435
lfemur -45.9877 20.594 -13.7186
ltibia 55.5078 0 0
lfoot -8.56822 2.00705 0
ltoes 13.4561 0 0
rfemur -20.8374 -1.08528 31.3633
rtibia 39.8979 0 0
rfoot -22.3728 0.618531 0
rtoes 18.0164 0 0
lowerback 5.03695 2.2709 3.81145
upperback 2.5054 3.18016 0.767982
thorax -0.0731304 1.61222 -1.49684
lowerneck -7.46395 -0.966646 3.53598
upperneck -0.243875 -1.64073 1.91304
head 1.15973 -0.783593 -0.0512741
lclavicle 6.3186e-16 -4.48685e-15 0
lhumerus -39.8773 -22.7285 93.6458
lradius 55.1459 0 0
lwrist 17.7407 0 0
lhand -22.0124 2.19405 0
lfingers 7.12502 0 0
lthumb 4.39678 32.128 0
rclavicle 6.3186e-16 -4.48685e-15 0
rhumerus -38.0553 13.9799 -93.9695
rradius 58.5549 0 0
rwrist 10.048 0 0
rhand -10.8363 -18.7079 0
rfingers 7.12502 0 0
rthumb 15.1781 -768.13 0
379
root 5.95621 16.5429 -15.2007 9.54319 -20.8765 -6.8271
lfemur -46.2414 20.1137 -13.9394
ltibia 52.4892 0 0
lfoot -8.08989 2.85728 0
ltoes 13.3749 0 0
rfemur -19.9317 -0.463717 31.3962
rtibia 39.4485 0 0
rfoot -22.618 0.618733 0
rtoes 18.1011 0 0
lowerback 4.99316 2.4425 3.91702
upperback 2.47433 3.41131 0.704442
thorax -0.0620885 1.72875 -1.63046
lowerneck -7.36796 -0.887037 3.6871
upperneck -0.141185 -1.54524 1.84803
head 1.17445 -0.735625 -0.0933401
lclavicle 7.55382e-15 -4.37326e-15 0
lhumerus -39.7586 -22.6619 93.3187
lradius 54.8011 0 0
lwrist 17.3402 0 0
lhand -22.1962 2.01352 0
lfingers 7.12502 0 0
lthumb 4.21936 31.9515 0
rclavicle 7.55382e-15 -4.37326e-15 0
rhumerus -38.1913 14.2795 -94.0831
rradius 57.9319 0 0
rwrist 10.2654 0 0
rhand -11.1636 -18.4989 0
rfingers 7.12502 0 0
rthumb 14.8629 -767.946 0
380
root 5.90484 16.5401 -15.048 9.46209 -21.3441 -6.94659
lfemur -45.4299 18.3871 -13.0818
ltibia 49.9755 0 0
lfoot -7.95718 4.40434 0
ltoes 13.5634 0 0
rfemur -18.9797 -0.421023 31.4567
rtibia 39.1904 0 0
rfoot -22.8371 0.577131 0
rtoes 17.8984 0 0
lowerback 4.84301 2.52207 4.01918
upperback 2.41723 3.5154 0.66512
thorax -0.0208626 1.78211 -1.72438
lowerneck -7.23635 -0.839606 3.82325
upperneck 0.00813343 -1.48953 1.82523
head 1.19927 -0.705246 -0.121438
lclavicle 2.03754e-14 -3.12376e-15 0
lhumerus -39.9636 -22.5067 93.2189
lradius 54.6628 0 0
lwrist 17.4805 0 0
lhand -21.5366 2.35941 0
lfingers 7.12502 0 0
lthumb 4.8561 32.2779 0
rclavicle 2.03754e-14 -3.12376e-15 0
rhumerus -38.5327 14.4758 -94.1832
rradius 57.7244 0 0
rwrist 10.3334 0 0
rhand -11.4948 -18.646 0
rfingers 7.12502 0 0
rthumb 14.5437 -768.115 0
381
root 5.85346 16.5372 -14.8954 9.38099 -21.8117 -7.06607
lfemur -44.6184 16.6604 -12.2242
ltibia 47.4618 0 0
lfoot -7.82447 5.9514 0
ltoes 13.7518 0 0
rfemur -18.0277 -0.37833 31.5172
rtibia 38.9323 0 0
rfoot -23.0562 0.535529 0
rtoes 17.6957 0 0
lowerback 4.69286 2.60163 4.12134
upperback 2.36013 3.61949 0.625797
thorax 0.0203634 1.83546 -1.81829
lowerneck -7.10475 -0.792174 3.9594
upperneck 0.157452 -1.43381 1.80242
head 1.22409 -0.674868 -0.149535
lclavicle 3.3197e-14 -1.87425e-15 0
lhumerus -40.1687 -22.3516 93.1191
lradius 54.5245 0 0
lwrist 17.6207 0 0
lhand -20.877 2.7053 0
lfingers 7.12502 0 0
lthumb 5.49283 32.6043 0
rclavicle 3.3197e-14 -1.87425e-15 0
rhumerus -38.8742 14.6722 -94.2832
rradius 57.5169 0 0
rwrist 10.4014 0 0
rhand -11.8261 -18.7932 0
rfingers 7.12502 0 0
rthumb 14.2245 -768.283 0
382
root 5.80209 16.5344 -14.7427 9.29989 -22.2793 -7.18556
lfemur -43.8069 14.9338 -11.3666
ltibia 44.9481 0 0
lfoot -7.69176 7.49846 0
ltoes 13.9403 0 0
rfemur -17.0757 -0.335636 31.5777
rtibia 38.6742 0 0
rfoot -23.2753 0.493927 0
rtoes 17.493 0 0
lowerback 4.54271 2.6812 4.2235
upperback 2.30303 3.72358 0.586475
thorax 0.0615893 1.88882 -1.91221
lowerneck -6.97314 -0.744743 4.09555
upperneck 0.30677 -1.3781 1.77962
head 1.24891 -0.644489 -0.177633
lclavicle 4.60187e-14 -6.24751e-16 0
lhumerus -40.3737 -22.1964 93.0193
lradius 54.3862 0 0
lwrist 17.761 0 0
lhand -20.2174 3.05119 0
lfingers 7.12502 0 0
lthumb 6.12957 32.9307 0
rclavicle 4.60187e-14 -6.24751e-16 0
rhumerus -39.2156 14.8685 -94.3833
rradius 57.3094 0 0
rwrist 10.4694 0 0
rhand -12.1573 -18.9403 0
rfingers 7.12502 0 0
rthumb 13.9053 -768.452 0
383
root 5.75071 16.5315 -14.5901 9.21879 -22.747 -7.30504
lfemur -42.9955 13.2072 -10.509
ltibia 42.4344 0 0
lfoot -7.55904 9.04552 0
ltoes 14.1287 0 0
rfemur -16.1238 -0.292943 31.6383
rtibia 38.4162 0 0
rfoot -23.4945 0.452325 0
rtoes 17.2904 0 0
lowerback 4.39257 2.76077 4.32566
upperback 2.24592 3.82768 0.547153
thorax 0.102815 1.94217 -2.00612
lowerneck -6.84153 -0.697312 4.23169
upperneck 0.456089 -1.32239 1.75681
head 1.27374 -0.614111 -0.20573
lclavicle 5.88403e-14 6.24751e-16 0
lhumerus -40.5788 -22.0413 92.9196
lradius 54.248 0 0
lwrist 17.9012 0 0
lhand -19.5579 3.39707 0
lfingers 7.12502 0 0
lthumb 6.7663 33.2572 0
rclavicle 5.88403e-14 6.24751e-16 0
rhumerus -39.5571 15.0648 -94.4834
rradius 57.102 0 0
rwrist 10.5374 0 0
rhand -12.4885 -19.0874 0
rfingers 7.12502 0 0
rthumb 13.586 -768.621 0
384
root 5.69934 16.5287 -14.4374 9.13769 -23.2146 -7.42453
lfemur -42.184 11.4806 -9.65144
ltibia 39.9207 0 0
lfoot -7.42633 10.5926 0
ltoes 14.3172 0 0
rfemur -15.1718 -0.250249 31.6988
rtibia 38.1581 0 0
rfoot -23.7136 0.410723 0
rtoes 17.0877 0 0
lowerback 4.24242 2.84034 4.42782
upperback 2.18882 3.93177 0.507831
thorax 0.144041 1.99553 -2.10004
lowerneck -6.70992 -0.649881 4.36784
upperneck 0.605407 -1.26668 1.73401
head 1.29856 -0.583732 -0.233828
lclavicle 7.16619e-14 1.87425e-15 0
lhumerus -40.7838 -21.8861 92.8198
lradius 54.1097 0 0
lwrist 18.0415 0 0
lhand -18.8983 3.74296 0
lfingers 7.12502 0 0
lthumb 7.40304 33.5836 0
rclavicle 7.16619e-14 1.87425e-15 0
rhumerus -39.8985 15.2611 -94.5835
rradius 56.8945 0 0
rwrist 10.6054 0 0
rhand -12.8197 -19.2345 0
rfingers 7.12502 0 0
rthumb 13.2668 -768.79 0
385
root 5.64796 16.5258 -14.2848 9.05659 -23.6822 -7.54401
lfemur -41.3725 9.75394 -8.79384
ltibia 37.407 0 0
lfoot -7.29362 12.1396 0
ltoes 14.5056 0 0
rfemur -14.2198 -0.207556 31.7593
rtibia 37.9 0 0
rfoot -23.9327 0.369121 0
rtoes 16.885 0 0
lowerback 4.09227 2.9199 4.52998
upperback 2.13172 4.03586 0.468508
thorax 0.185267 2.04888 -2.19395
lowerneck -6.57832 -0.602449 4.50399
upperneck 0.754726 -1.21096 1.7112
head 1.32338 -0.553354 -0.261925
lclavicle 8.44835e-14 3.12376e-15 0
lhumerus -40.9889 -21.731 92.72
lradius 53.9714 0 0
lwrist 18.1817 0 0
lhand -18.2387 4.08885 0
lfingers 7.12502 0 0
lthumb 8.03977 33.91 0
rclavicle 8.44835e-14 3.12376e-15 0
rhumerus -40.24 15.4575 -94.6835
rradius 56.687 0 0
rwrist 10.6734 0 0
rhand -13.151 -19.3817 0
rfingers 7.12502 0 0
rthumb 12.9476 -768.958 0
